<svg width="106" height="40" viewBox="0 0 106 40" fill="none" xmlns="http://www.w3.org/2000/svg">
<path d="M8.19789 32V28.96H11.6679V28.22H8.19789V26.07H11.7379V25.33H7.36789V32H8.19789ZM19.5957 32.12C21.4057 32.12 22.3257 31.06 22.3257 29.4V25.33H21.4857V29.39C21.4857 30.61 20.8257 31.38 19.5957 31.38C18.3657 31.38 17.7157 30.61 17.7157 29.39V25.33H16.8757V29.41C16.8757 31.05 17.7957 32.12 19.5957 32.12ZM32.7274 32L30.9274 29.28C31.8374 29.2 32.6674 28.54 32.6674 27.34C32.6674 26.11 31.7874 25.33 30.5674 25.33H27.8874V32H28.7174V29.35H30.0574L31.7474 32H32.7274ZM30.4674 28.62H28.7174V26.07H30.4674C31.2574 26.07 31.8074 26.58 31.8074 27.34C31.8074 28.09 31.2574 28.62 30.4674 28.62ZM43.5012 32V25.33H42.6712V30.54L38.8312 25.33H37.9812V32H38.8112V26.68L42.7012 32H43.5012ZM49.8913 32V25.33H49.0613V32H49.8913ZM57.7338 32C59.8138 32 61.1538 30.57 61.1538 28.67C61.1538 26.78 59.8138 25.33 57.7338 25.33H55.4538V32H57.7338ZM57.7338 31.26H56.2838V26.07H57.7338C59.3838 26.07 60.2938 27.23 60.2938 28.67C60.2938 30.1 59.3538 31.26 57.7338 31.26ZM70.8258 32V31.26H67.2858V28.96H70.7558V28.22H67.2858V26.07H70.8258V25.33H66.4558V32H70.8258ZM81.6691 32V25.33H80.8391V30.54L76.9991 25.33H76.1491V32H76.9791V26.68L80.8691 32H81.6691ZM90.3892 32.12C91.5692 32.12 92.3692 31.56 92.9292 30.79L92.2292 30.41C91.8492 30.97 91.1492 31.38 90.3892 31.38C88.9292 31.38 87.8192 30.25 87.8192 28.67C87.8192 27.07 88.9292 25.96 90.3892 25.96C91.1492 25.96 91.8492 26.36 92.2292 26.93L92.9192 26.54C92.3892 25.78 91.5692 25.22 90.3892 25.22C88.4692 25.22 86.9592 26.62 86.9592 28.67C86.9592 30.72 88.4692 32.12 90.3892 32.12ZM102.357 32V31.26H98.817V28.96H102.287V28.22H98.817V26.07H102.357V25.33H97.987V32H102.357Z" fill="#AC8F17"/>
<path d="M44.4286 0C42.2857 0 40.1429 2 40.1429 4C44.4286 4 46.5714 7.15209 46.5714 10H59.4286C59.4286 6.96367 61.5714 4 65.8571 4C65.8571 2 63.7143 0 61.5714 0H44.4286ZM40.1429 6C38 6 38 8 38 8C38 9.03633 39.0325 10 40.1429 10V16C40.1429 17.2905 41.05 18 42.2857 18H43.3571C43.3571 18 43.3571 20 45.5 20C47.6429 20 47.6429 18 47.6429 18H58.3571C58.3571 18 58.3571 20 60.5 20C62.6429 20 62.6429 18 62.6429 18H63.7143C64.8061 18 65.8571 17.0315 65.8571 16V10C66.917 10 68 9.22476 68 8C68 8 68 6 65.8571 6C63.7143 6 61.5714 8 61.5714 12H44.4286C44.4286 8 42.2857 6 40.1429 6Z" fill="#AC8F17"/>
</svg>
